<?xml version="1.0" encoding="utf-8"?>
<!-- Generator: Adobe Illustrator 16.0.0, SVG Export Plug-In . SVG Version: 6.00 Build 0)  -->
<!DOCTYPE svg PUBLIC "-//W3C//DTD SVG 1.1//EN" "http://www.w3.org/Graphics/SVG/1.1/DTD/svg11.dtd">
<svg version="1.1" id="Layer_1" xmlns="http://www.w3.org/2000/svg" xmlns:xlink="http://www.w3.org/1999/xlink" x="0px" y="0px"
	 width="64.72px" height="70.016px" viewBox="0 0 64.72 70.016" enable-background="new 0 0 64.72 70.016" xml:space="preserve">
<rect fill="#ED6E2F" width="64.72" height="70.016"/>
<g>
	<path fill-rule="evenodd" clip-rule="evenodd" fill="#FFFFFF" d="M12.646,45.455c0-1.682,0.041-3.366-0.012-5.041
		c-0.029-0.779,0.268-1.2,0.922-1.564c2.622-1.471,5.2-3.014,7.828-4.473c0.668-0.369,0.933-0.764,0.916-1.545
		c-0.05-3.009,0.012-6.016-0.026-9.027c-0.013-0.804,0.235-1.284,0.946-1.684c2.826-1.585,5.637-3.19,8.416-4.857
		c0.791-0.472,1.376-0.411,2.125,0.038c2.749,1.637,5.514,3.246,8.309,4.811c0.718,0.396,0.976,0.873,0.967,1.67
		c-0.033,3.051,0,6.092-0.041,9.143c-0.009,0.668,0.185,1.05,0.775,1.391c2.656,1.488,5.271,3.045,7.93,4.534
		c0.74,0.413,1.023,0.9,1.007,1.754c-0.052,3.204-0.056,6.411-0.007,9.613c0.014,0.869-0.294,1.342-1.027,1.753
		c-2.795,1.565-5.571,3.155-8.318,4.795c-0.781,0.468-1.39,0.42-2.149-0.038c-2.542-1.52-5.139-2.952-7.679-4.488
		c-0.671-0.402-1.145-0.37-1.795,0.018c-2.546,1.518-5.141,2.951-7.689,4.474c-0.774,0.459-1.378,0.454-2.148-0.004
		c-2.743-1.639-5.519-3.238-8.308-4.803c-0.71-0.399-0.999-0.843-0.966-1.664C12.687,48.659,12.643,47.053,12.646,45.455z"/>
	<path fill-rule="evenodd" clip-rule="evenodd" fill="#F16A2A" d="M34.024,40.065c2.168-1.257,4.152-2.408,6.144-3.554
		c0.704-0.406,1.425-1.1,2.138-1.1c0.719-0.005,1.441,0.687,2.149,1.093c1.724,0.993,3.437,1.993,5.157,2.991
		c0.299,0.173,0.643,0.282,0.893,0.65c-2.229,1.285-4.492,2.493-6.648,3.877c-1.14,0.727-1.993,0.693-3.125-0.033
		C38.611,42.623,36.373,41.425,34.024,40.065z"/>
	<path fill-rule="evenodd" clip-rule="evenodd" fill="#F16A2A" d="M51.301,41.262c0,1.036,0,1.846,0,2.657
		c-0.005,2.067-0.019,4.135,0,6.204c0.003,0.468-0.098,0.803-0.539,1.054c-2.511,1.414-5.009,2.852-7.517,4.281
		c-0.023,0.015-0.073-0.012-0.122-0.027c-0.255-0.208-0.12-0.503-0.125-0.754c-0.007-2.572,0.022-5.146-0.016-7.72
		c-0.008-0.669,0.2-1.051,0.799-1.384C46.229,44.214,48.644,42.795,51.301,41.262z"/>
	<path fill-rule="evenodd" clip-rule="evenodd" fill="#F1692A" d="M22.164,55.375c-0.221,0.099-0.372-0.049-0.533-0.146
		c-2.33-1.342-4.66-2.688-6.991-4.029c-0.375-0.212-0.694-0.406-0.687-0.956c0.035-2.926,0.021-5.851,0.023-8.74
		c0.368-0.232,0.572,0.04,0.788,0.163c2.262,1.301,4.517,2.619,6.781,3.916c0.428,0.246,0.743,0.46,0.735,1.049
		c-0.036,2.849-0.023,5.698-0.033,8.551C22.248,55.246,22.193,55.307,22.164,55.375z"/>
	<path fill-rule="evenodd" clip-rule="evenodd" fill="#F16A2A" d="M33.349,38.866c0.004-2.969,0.004-5.768,0.007-8.744
		c2.556,1.401,5.009,2.861,7.589,4.373C38.37,35.979,35.911,37.385,33.349,38.866z"/>
	<path fill-rule="evenodd" clip-rule="evenodd" fill="#F16A2A" d="M41.629,24.521c-0.004,3.01-0.006,5.792-0.01,8.763
		c-2.563-1.478-4.997-2.892-7.59-4.388C36.622,27.404,39.063,25.997,41.629,24.521z"/>
	<path fill-rule="evenodd" clip-rule="evenodd" fill="#F16A2A" d="M23.689,33.277c0.002-3.012,0.005-5.787,0.013-8.767
		c2.55,1.47,5.001,2.878,7.6,4.375C28.746,30.359,26.302,31.773,23.689,33.277z"/>
	<path fill-rule="evenodd" clip-rule="evenodd" fill="#F16A2A" d="M23.736,46.864c2.544,1.47,4.933,2.85,7.327,4.233
		c-0.52,0.612-5.785,3.73-7.335,4.339C23.733,52.631,23.733,49.856,23.736,46.864z"/>
	<path fill-rule="evenodd" clip-rule="evenodd" fill="#F16A2B" d="M31.971,38.884c-2.661-1.546-5.085-2.952-7.61-4.415
		c2.537-1.462,4.957-2.863,7.569-4.363C32.025,33.078,31.924,35.881,31.971,38.884z"/>
	<path fill-rule="evenodd" clip-rule="evenodd" fill="#F16A2A" d="M24.337,45.639c2.633-1.52,5.045-2.904,7.563-4.353
		c-0.002,2.945-0.009,5.726-0.009,8.711C29.349,48.531,26.941,47.136,24.337,45.639z"/>
</g>
</svg>
