<?xml version="1.0" encoding="utf-8"?>
<!-- Generator: Adobe Illustrator 16.0.0, SVG Export Plug-In . SVG Version: 6.00 Build 0)  -->
<!DOCTYPE svg PUBLIC "-//W3C//DTD SVG 1.1//EN" "http://www.w3.org/Graphics/SVG/1.1/DTD/svg11.dtd">
<svg version="1.1" id="Layer_1" xmlns="http://www.w3.org/2000/svg" xmlns:xlink="http://www.w3.org/1999/xlink" x="0px" y="0px"
	 width="64.719px" height="70.014px" viewBox="0 0 64.719 70.014" enable-background="new 0 0 64.719 70.014" xml:space="preserve">
<rect fill="#DC196A" width="64.719" height="70.014"/>
<g>
	<path fill-rule="evenodd" clip-rule="evenodd" fill="#FFFFFF" d="M50.728,33.264c1.651,5.74,0.807,11.125-2.642,15.958
		c-4.014,5.644-9.66,8.266-16.539,7.811c-8.088-0.54-15.104-6.538-17.229-14.393c-3.138-11.595,4.447-23.145,16.387-24.766
		c5.706-0.785,10.842,0.783,15.3,4.458c0.864,0.719,0.864,0.924,0.09,1.691c-0.535,0.535-1.075,1.055-1.609,1.585
		c-0.37,0.37-0.749,0.408-1.157,0.067c-0.15-0.129-0.307-0.252-0.457-0.377c-9.525-7.647-23.63-2.396-25.744,9.635
		c-1.099,6.271,1.143,11.445,5.829,15.512c9.847,8.535,25.181,3.096,27.616-9.709c0.39-2.051,0.408-4.092,0.008-6.143
		c-0.051-0.272-0.057-0.549-0.086-0.826C50.406,33.523,50.281,33.261,50.728,33.264z"/>
	<path fill-rule="evenodd" clip-rule="evenodd" fill="#FFFFFF" d="M33.502,43.275c-2.38,0-4.754,0.008-7.135,0.008
		c-1.036-0.008-1.042-0.023-1.06-1.077c-0.005-0.713,0.023-1.428-0.008-2.14c-0.02-0.595,0.187-0.873,0.821-0.841
		c0.789,0.037,1.584,0.01,2.377,0.01c4.041-0.01,8.085-0.017,12.127-0.017c1.091,0,1.094,0.017,1.1,1.122
		c0.005,0.555,0.005,1.109,0,1.668c0,1.249-0.004,1.251-1.212,1.261C38.176,43.275,35.839,43.275,33.502,43.275z"/>
	<path fill-rule="evenodd" clip-rule="evenodd" fill="#FFFFFF" d="M33.499,32.436c2.378,0,4.755-0.007,7.137-0.007
		c1.073,0,1.073,0,1.083,1.124c0.002,0.595,0.006,1.189,0.002,1.784c-0.012,1.063-0.015,1.072-1.028,1.084
		c-0.514,0.005-1.031,0-1.544,0.005c-4.129,0-8.256,0.008-12.383,0.008c-0.278,0-0.555,0-0.833,0c-0.449,0-0.633-0.233-0.628-0.67
		c0.003-0.831,0.037-1.668-0.02-2.5c-0.037-0.651,0.252-0.828,0.839-0.821c1.747,0.011,3.487-0.007,5.231-0.007
		c0.716-0.007,1.428-0.007,2.144-0.007C33.499,32.436,33.499,32.436,33.499,32.436z"/>
	<path fill-rule="evenodd" clip-rule="evenodd" fill="#F4D2D8" d="M50.728,33.264c-0.194,0.117-0.19,0.317-0.233,0.502
		c-0.581-1.821-1.351-3.559-2.192-5.271c0.098-0.092,0.197-0.092,0.295,0C49.568,29.967,50.336,31.533,50.728,33.264z"/>
	<path fill-rule="evenodd" clip-rule="evenodd" fill="#EAA0B1" d="M48.047,28.081c-0.226-0.211-0.419-0.445-0.39-0.783l-0.01,0.006
		c0.337,0.076,0.451,0.352,0.558,0.635C48.219,28.057,48.166,28.106,48.047,28.081z"/>
	<path fill-rule="evenodd" clip-rule="evenodd" fill="#EAA0B1" d="M48.597,28.495c-0.098,0-0.197,0-0.295,0
		c-0.176-0.084-0.206-0.252-0.255-0.414c0.054-0.05,0.107-0.094,0.158-0.142C48.401,28.076,48.539,28.258,48.597,28.495z"/>
	<path fill-rule="evenodd" clip-rule="evenodd" fill="#EB97AF" d="M47.657,27.298c-0.107-0.008-0.147-0.044-0.126-0.118
		c0.004-0.006,0.069,0,0.078,0.016c0.021,0.028,0.021,0.077,0.038,0.108L47.657,27.298z"/>
</g>
</svg>
