<?xml version="1.0" encoding="utf-8"?>
<!-- Generator: Adobe Illustrator 16.0.0, SVG Export Plug-In . SVG Version: 6.00 Build 0)  -->
<!DOCTYPE svg PUBLIC "-//W3C//DTD SVG 1.1//EN" "http://www.w3.org/Graphics/SVG/1.1/DTD/svg11.dtd">
<svg version="1.1" id="Layer_1" xmlns="http://www.w3.org/2000/svg" xmlns:xlink="http://www.w3.org/1999/xlink" x="0px" y="0px"
	 width="64.718px" height="70.016px" viewBox="0 0 64.718 70.016" enable-background="new 0 0 64.718 70.016" xml:space="preserve">
<rect fill="#F59C2E" width="64.718" height="70.016"/>
<g>
	<path fill-rule="evenodd" clip-rule="evenodd" fill="#FFFFFF" d="M20.776,37.18c0.022-5.977,0.043-11.959,0.065-17.946
		c0-0.304,0.025-0.61,0-0.92c-0.037-0.544,0.182-0.757,0.743-0.743c1.309,0.033,2.62,0.014,3.931,0.022
		c2.05,0.004,4.092,0.011,6.137,0.018c1.13,0.01,1.135,0.015,1.13,1.152c-0.032,9.031-0.063,18.057-0.09,27.089
		c-0.016,3.321-0.022,6.639-0.041,9.955c-0.004,1.172-0.016,1.18-1.14,1.18c-3.239-0.007-6.485-0.016-9.726-0.036
		c-1.063-0.01-1.077-0.017-1.068-1.123C20.729,49.613,20.755,43.397,20.776,37.18z"/>
	<path fill-rule="evenodd" clip-rule="evenodd" fill="#FFFFFF" d="M46.14,41.003c-0.013,4.833-0.032,9.656-0.047,14.481
		c0,0.229,0.003,0.468-0.008,0.688c-0.026,0.879-0.031,0.899-0.925,0.899c-3.361-0.006-6.725-0.021-10.079-0.04
		c-0.858,0-0.876-0.016-0.876-0.921c0.016-5.405,0.044-10.812,0.047-16.214c0-0.539,0.163-0.958,0.495-1.362
		c3.487-4.38,6.968-8.767,10.447-13.147c0.095-0.123,0.191-0.246,0.288-0.361c0.138-0.167,0.313-0.227,0.514-0.153
		c0.177,0.066,0.186,0.232,0.191,0.381c0.01,0.311,0.008,0.618,0.008,0.927C46.178,31.124,46.162,36.064,46.14,41.003z"/>
	<path fill-rule="evenodd" clip-rule="evenodd" fill="#FFFFFF" d="M47.428,50.829c0.006-1.696,0.006-3.396,0.02-5.092
		c0.01-0.906,0.024-0.922,0.872-0.922c3.473,0,6.947,0.016,10.419,0.035c0.858,0.008,0.881,0.026,0.881,0.94
		c-0.004,3.468-0.014,6.941-0.04,10.416c-0.007,0.896-0.026,0.917-0.889,0.917c-3.474-0.008-6.945-0.021-10.417-0.034
		c-0.846-0.01-0.86-0.029-0.86-0.93C47.411,54.379,47.424,52.608,47.428,50.829z"/>
	<path fill-rule="evenodd" clip-rule="evenodd" fill="#FFFFFF" d="M19.159,51.963c-0.004,1.315-0.004,2.625-0.02,3.934
		c-0.009,0.933-0.022,0.937-0.985,0.953c-0.769,0.002-1.541,0-2.311-0.016c-0.9-0.013-0.914-0.022-0.92-0.886
		c-0.011-1.391,0.013-2.784,0.011-4.168c-0.008-0.931-0.031-0.954-0.985-0.967c-0.773-0.021-1.542,0-2.313-0.021
		c-0.537-0.011-0.758,0.221-0.751,0.765c0.019,1.308,0.002,2.618-0.009,3.926c-0.013,1.486,0.141,1.327-1.395,1.337
		c-0.656,0-1.309-0.019-1.965-0.01c-0.47,0.015-0.713-0.155-0.704-0.665c0.015-2.81,0.024-5.624,0.026-8.436
		c0-0.576,0.319-0.696,0.821-0.687c1.577,0.017,3.157,0.007,4.738,0.017c1.921,0.01,3.854,0.01,5.779,0.018
		c0.952,0.02,0.986,0.052,0.988,0.974C19.179,49.342,19.165,50.656,19.159,51.963z"/>
	<path fill-rule="evenodd" clip-rule="evenodd" fill="#FFFFFF" d="M12.973,46.077c-1.773-0.005-3.55-0.005-5.322-0.026
		c-0.247,0-0.573,0.116-0.688-0.246c-0.083-0.238,0.114-0.423,0.25-0.603c1.738-2.263,3.465-4.531,5.217-6.78
		c0.549-0.706,0.682-0.7,1.206-0.026c1.739,2.257,3.472,4.527,5.2,6.783c0.154,0.208,0.429,0.398,0.285,0.702
		c-0.146,0.309-0.465,0.212-0.719,0.212C16.59,46.093,14.785,46.08,12.973,46.077z"/>
	<path fill-rule="evenodd" clip-rule="evenodd" fill="#FFFFFF" d="M53.435,43.933c-1.729-0.007-3.465-0.032-5.19-0.014
		c-0.599,0.007-0.813-0.185-0.797-0.792c0.08-2.5-0.332-2.03,1.956-2.047c3.074-0.023,6.155,0.017,9.232,0.031
		c0.931,0.002,0.931,0.015,0.943,0.953c0.026,1.89,0.026,1.89-1.873,1.886C56.281,43.94,54.857,43.933,53.435,43.933z"/>
	<path fill-rule="evenodd" clip-rule="evenodd" fill="#F89E2D" d="M22.753,37.693c0.015-1.768-0.126-1.537,1.54-1.547
		c0.154,0,0.306,0,0.461,0c0.865,0.03,0.865,0.038,0.895,0.931c0,0.076,0,0.152,0,0.228c-0.063,2.307,0.418,1.999-2.119,2.032
		c-0.607,0.011-0.837-0.255-0.784-0.841C22.771,38.229,22.751,37.963,22.753,37.693z"/>
	<path fill-rule="evenodd" clip-rule="evenodd" fill="#F89E2D" d="M30.746,37.807c-0.01,1.706,0.111,1.542-1.56,1.542
		c-0.156,0-0.313,0-0.466-0.001c-0.808-0.04-0.849-0.077-0.874-0.853c-0.007-0.183,0-0.384,0.004-0.571
		c0.028-2.055-0.235-1.741,1.788-1.749c1.091-0.011,1.091,0.007,1.107,1.053C30.746,37.419,30.746,37.615,30.746,37.807z"/>
	<path fill-rule="evenodd" clip-rule="evenodd" fill="#F89E2D" d="M22.703,50.923c0-0.109,0-0.232,0.004-0.346
		c0.014-1.13,0.014-1.141,1.158-1.13c1.977,0.003,1.721-0.178,1.735,1.701c0,0.152,0,0.305-0.003,0.457
		c-0.029,0.995-0.029,0.995-1.043,1.003c-0.037,0-0.074,0-0.115,0C22.477,52.565,22.721,52.872,22.703,50.923z"/>
	<path fill-rule="evenodd" clip-rule="evenodd" fill="#F89E2D" d="M30.699,51.03c-0.016,1.917,0.066,1.565-1.6,1.591
		c-0.229,0-0.462-0.013-0.691,0c-0.443,0.017-0.618-0.199-0.611-0.625c0.013-0.65,0.013-1.305,0.01-1.959
		c-0.002-0.378,0.193-0.563,0.558-0.573c0.267-0.007,0.536-0.004,0.805-0.004C30.879,49.459,30.693,49.366,30.699,51.03z"/>
	<path fill-rule="evenodd" clip-rule="evenodd" fill="#F89E2D" d="M30.766,31.2c0,1.829-0.006,1.471-1.456,1.5
		c-0.229,0.004-0.462-0.02-0.691,0c-0.535,0.045-0.771-0.187-0.753-0.729c0.021-0.576,0.024-1.152,0.007-1.723
		c-0.016-0.48,0.172-0.722,0.657-0.715c0.191,0.005,0.386,0,0.576,0C30.972,29.552,30.764,29.367,30.766,31.2z"/>
	<path fill-rule="evenodd" clip-rule="evenodd" fill="#F89E2D" d="M22.772,31.024c0.03-1.446-0.288-1.528,1.476-1.516
		c1.594,0.02,1.429-0.062,1.42,1.557c-0.005,1.923,0.092,1.597-1.58,1.61c-1.315,0.013-1.315-0.005-1.315-1.305
		C22.772,31.252,22.772,31.136,22.772,31.024z"/>
	<path fill-rule="evenodd" clip-rule="evenodd" fill="#F89C2B" d="M25.624,44.494c-0.02,1.609,0.136,1.434-1.398,1.434
		c-1.638-0.01-1.505,0.149-1.491-1.468c0.011-1.815-0.219-1.593,1.57-1.605c0.12,0,0.232,0,0.344,0.001
		c0.952,0.021,0.952,0.021,0.976,0.952C25.631,44.037,25.624,44.269,25.624,44.494z"/>
	<path fill-rule="evenodd" clip-rule="evenodd" fill="#F89C2B" d="M30.717,44.404c0,1.79,0.065,1.523-1.57,1.541
		c-0.231,0-0.465-0.009-0.693,0c-0.43,0.013-0.652-0.169-0.624-0.617c0.002-0.122-0.009-0.23,0-0.348
		c0.067-2.5-0.437-2.057,2.138-2.113c0.544-0.012,0.797,0.185,0.757,0.728C30.701,43.87,30.717,44.139,30.717,44.404z"/>
	<path fill-rule="evenodd" clip-rule="evenodd" fill="#F89C2B" d="M22.801,24.376c0.024-1.63-0.182-1.452,1.494-1.447
		c1.443,0.009,1.404-0.249,1.398,1.438c-0.01,1.919,0.113,1.614-1.68,1.633c-0.078,0-0.152,0-0.229,0
		c-0.971-0.019-0.971-0.019-0.984-0.94C22.799,24.833,22.801,24.608,22.801,24.376z"/>
	<path fill-rule="evenodd" clip-rule="evenodd" fill="#F89C2B" d="M27.9,24.478c0.028-1.741-0.21-1.53,1.52-1.521
		c1.346,0,1.379-0.268,1.37,1.346c-0.017,2.018,0.132,1.688-1.715,1.714c-0.11,0.01-0.228,0.01-0.34,0
		c-0.812-0.032-0.815-0.032-0.839-0.852C27.89,24.939,27.896,24.705,27.9,24.478z"/>
	<path fill-rule="evenodd" clip-rule="evenodd" fill="#F89C2B" d="M39.613,38.26c-0.004,0.696-0.016,1.388-0.006,2.08
		c0.006,0.439-0.192,0.637-0.62,0.63c-0.884-0.003-1.77,0.021-2.649-0.022c-0.591-0.017-0.804-0.404-0.52-0.947
		c0.193-0.368,0.482-0.692,0.752-1.02c0.764-0.963,1.543-1.913,2.324-2.862c0.141-0.176,0.277-0.42,0.555-0.308
		c0.275,0.114,0.16,0.401,0.164,0.603C39.628,37.031,39.613,37.646,39.613,38.26z"/>
	<path fill-rule="evenodd" clip-rule="evenodd" fill="#F89C2B" d="M37.605,44.911c0.031,0-0.007,0-0.046,0
		c-1.904,0.029-2.215-0.35-1.846-2.21c0.063-0.309,0.21-0.481,0.529-0.481c0.965,0.01,1.929,0.007,2.894,0.02
		c0.266,0,0.421,0.153,0.447,0.425c0.014,0.073,0.006,0.145,0.014,0.228C39.753,44.864,39.757,44.864,37.605,44.911z"/>
	<path fill-rule="evenodd" clip-rule="evenodd" fill="#F89C2C" d="M42.836,34.423c0.039,0,0.078,0,0.119,0
		c1.961,0.011,2.07,0.14,1.828,2.085c-0.045,0.371-0.201,0.56-0.563,0.56c-0.921,0.01-1.839,0-2.76-0.004
		c-0.322-0.002-0.483-0.188-0.489-0.514c0-0.032,0-0.073-0.003-0.109C40.775,34.437,40.797,34.413,42.836,34.423z"/>
	<path fill-rule="evenodd" clip-rule="evenodd" fill="#F89C2B" d="M42.816,38.329c0.043,0,0.076,0,0.113,0
		c1.983,0,2.065,0.115,1.84,2.077c-0.047,0.377-0.188,0.572-0.56,0.572c-0.921,0.007-1.842-0.01-2.762-0.02
		c-0.334,0-0.499-0.154-0.489-0.487c0-0.036,0-0.08-0.004-0.119C40.78,38.323,40.78,38.323,42.816,38.329z"/>
	<path fill-rule="evenodd" clip-rule="evenodd" fill="#F89C28" d="M37.691,46.157c0.115,0,0.231-0.01,0.348,0.01
		c0.48,0.053,1.156-0.239,1.397,0.179c0.362,0.622,0.142,1.417,0.093,2.134c-0.012,0.208-0.246,0.268-0.445,0.268
		c-0.955,0.003-1.914-0.007-2.871-0.01c-0.395,0-0.489-0.232-0.527-0.594C35.487,46.147,35.48,46.147,37.691,46.157z"/>
	<path fill-rule="evenodd" clip-rule="evenodd" fill="#F89B2A" d="M37.637,52.662c-0.077,0-0.152,0-0.229,0
		c-1.909-0.007-1.966-0.09-1.729-2.032c0.046-0.37,0.191-0.554,0.565-0.545c0.919,0.009,1.84,0.009,2.753,0.009
		c0.367,0,0.533,0.129,0.577,0.523C39.788,52.582,39.719,52.676,37.637,52.662z"/>
	<path fill-rule="evenodd" clip-rule="evenodd" fill="#F89B27" d="M42.762,52.679c-0.039,0-0.08,0.005-0.116,0
		c-0.553-0.09-1.355,0.291-1.617-0.223c-0.272-0.52-0.089-1.275-0.095-1.933c-0.004-0.277,0.151-0.416,0.427-0.416
		c0.966,0,1.931,0.003,2.896,0.008c0.346,0,0.473,0.199,0.461,0.522c0,0.036,0.003,0.076,0.006,0.107
		C44.867,52.684,44.867,52.684,42.762,52.679z"/>
	<path fill-rule="evenodd" clip-rule="evenodd" fill="#F89B27" d="M42.881,42.24c0.04,0,0.08,0,0.115,0
		c1.938,0.047,1.757-0.347,1.747,1.797c-0.003,0.801-0.053,0.834-0.845,0.847c-0.729,0.021-1.461-0.02-2.188,0.011
		c-0.608,0.017-0.791-0.249-0.777-0.832C40.983,41.796,40.717,42.296,42.881,42.24z"/>
	<path fill-rule="evenodd" clip-rule="evenodd" fill="#F89B27" d="M42.739,48.765c-2.086-0.063-1.78,0.434-1.81-1.933
		c-0.01-0.486,0.173-0.685,0.674-0.666c0.838,0.027,1.68,0.027,2.523,0.013c0.432-0.006,0.585,0.169,0.619,0.607
		C44.913,48.774,44.927,48.774,42.739,48.765z"/>
	<path fill-rule="evenodd" clip-rule="evenodd" fill="#F89C2B" d="M44.793,31c-0.006,2.161-0.006,2.161-2.134,2.138
		c-0.116,0-0.232,0.002-0.348,0c-0.256-0.034-0.578,0.096-0.747-0.173c-0.221-0.357,0.119-0.581,0.29-0.801
		c0.737-0.936,1.5-1.861,2.261-2.785c0.116-0.135,0.246-0.311,0.471-0.249c0.247,0.071,0.204,0.296,0.207,0.481
		C44.8,30.08,44.793,30.533,44.793,31z"/>
	<path fill-rule="evenodd" clip-rule="evenodd" fill="#F89C2A" d="M51.014,50.144c0.381,0.003,0.768,0.032,1.146-0.004
		c0.633-0.066,0.766,0.253,0.785,0.813c0.063,1.765,0.08,1.765-1.673,1.756c-0.576,0-1.153-0.006-1.723-0.003
		c-0.373,0.003-0.585-0.14-0.602-0.518c-0.003-0.039-0.003-0.075-0.003-0.117C48.739,50.184,48.787,50.134,51.014,50.144z"/>
	<path fill-rule="evenodd" clip-rule="evenodd" fill="#F89C2C" d="M50.943,48.801c-0.113-0.003-0.232-0.003-0.344-0.003
		c-1.689,0-1.938-0.326-1.638-2.035c0.064-0.368,0.242-0.534,0.613-0.528c0.925,0.008,1.846-0.019,2.77,0.021
		c0.595,0.019,0.645,0.113,0.591,1.338c-0.018,0.46,0.298,1.17-0.604,1.204c-0.466,0.021-0.929,0-1.389,0
		C50.943,48.798,50.943,48.798,50.943,48.801z"/>
	<path fill-rule="evenodd" clip-rule="evenodd" fill="#F89C28" d="M56.293,50.163c0.148,0,0.304-0.017,0.455,0.006
		c0.443,0.046,1.098-0.226,1.299,0.169c0.323,0.64,0.137,1.407,0.074,2.129c-0.013,0.171-0.171,0.25-0.331,0.25
		c-1.074-0.009-2.194,0.184-3.202-0.078c-0.779-0.209-0.252-1.199-0.361-1.825c-0.066-0.395,0.102-0.667,0.568-0.656
		c0.501,0.012,0.996,0.005,1.498,0.008C56.293,50.163,56.293,50.163,56.293,50.163z"/>
	<path fill-rule="evenodd" clip-rule="evenodd" fill="#F89C2A" d="M56.252,48.82c-0.152,0-0.308,0.01-0.461-0.008
		c-0.483-0.047-1.147,0.238-1.416-0.193c-0.367-0.583-0.148-1.339-0.091-2.021c0.02-0.274,0.274-0.341,0.52-0.341
		c0.964,0,1.926,0.009,2.89,0.009c0.332,0,0.49,0.177,0.493,0.508c0,0.032,0,0.075,0.004,0.112
		C58.379,48.824,58.379,48.824,56.252,48.82z"/>
</g>
</svg>
