<?xml version="1.0" encoding="utf-8"?>
<!-- Generator: Adobe Illustrator 16.0.0, SVG Export Plug-In . SVG Version: 6.00 Build 0)  -->
<!DOCTYPE svg PUBLIC "-//W3C//DTD SVG 1.1//EN" "http://www.w3.org/Graphics/SVG/1.1/DTD/svg11.dtd">
<svg version="1.1" id="Layer_1" xmlns="http://www.w3.org/2000/svg" xmlns:xlink="http://www.w3.org/1999/xlink" x="0px" y="0px"
	 width="64.718px" height="70.016px" viewBox="0 0 64.718 70.016" enable-background="new 0 0 64.718 70.016" xml:space="preserve">
<rect fill="#C6982D" width="64.718" height="70.016"/>
<g>
	<path fill-rule="evenodd" clip-rule="evenodd" fill="#FFFFFF" d="M23.043,51.037c-0.536-0.496-1.008-0.896-1.428-1.335
		c-0.441-0.455-0.379-0.738,0.165-1.004c0.155-0.077,0.33-0.114,0.5-0.159c2.316-0.643,4.633-1.301,6.953-1.938
		c1.089-0.303,1.346-0.132,1.192,0.92c-0.375,2.518-0.789,5.019-1.241,7.512c-0.172,0.947-0.446,1-1.205,0.419
		c-0.482-0.375-0.847-1.1-1.422-1.072c-0.543,0.02-1.06,0.537-1.595,0.821c-7.276,3.961-17.877,0.688-19.655-9.021
		c-0.549-3.001-0.398-6.039,0.637-8.955c1.617-4.524,4.886-7.193,9.521-8.125c5.263-1.064,9.779,0.449,13.517,4.296
		c2.499,2.581,4.325,5.615,5.952,8.789c0.854,1.675,1.756,3.333,2.9,4.839c1.981,2.591,4.483,4.423,7.667,5.233
		c5.08,1.279,9.274-1.314,10.333-6.414c0.41-1.983,0.371-3.996-0.063-5.996c-0.882-4.09-3.972-6.194-7.854-6.583
		c-3.072-0.318-5.661,0.843-7.895,2.888c-0.902,0.831-1.705,1.762-2.453,2.739c-0.825,1.069-1.023,1.046-1.72-0.168
		c-0.394-0.677-0.763-1.379-1.194-2.038c-0.344-0.514-0.344-0.935,0.055-1.419c3.475-4.196,7.686-6.922,13.378-6.474
		c6.955,0.55,11.692,5.082,12.39,12.045c0.246,2.432,0.109,4.811-0.56,7.153c-1.817,6.431-8.021,10.155-14.583,8.824
		c-4.547-0.924-8.135-3.331-10.966-6.952c-1.245-1.595-2.264-3.325-3.172-5.136c-1.366-2.7-2.859-5.331-4.882-7.615
		c-1.605-1.818-3.522-3.09-5.929-3.65c-5.314-1.251-10.214,2.165-10.736,7.598c-0.106,1.098-0.1,2.195-0.048,3.288
		c0.182,4.061,3.277,7.379,7.314,7.892C19.434,52.555,21.282,52.206,23.043,51.037z"/>
</g>
</svg>
