<?xml version="1.0" encoding="utf-8"?>
<!-- Generator: Adobe Illustrator 16.0.0, SVG Export Plug-In . SVG Version: 6.00 Build 0)  -->
<!DOCTYPE svg PUBLIC "-//W3C//DTD SVG 1.1//EN" "http://www.w3.org/Graphics/SVG/1.1/DTD/svg11.dtd">
<svg version="1.1" id="Layer_1" xmlns="http://www.w3.org/2000/svg" xmlns:xlink="http://www.w3.org/1999/xlink" x="0px" y="0px"
	 width="64.719px" height="70.016px" viewBox="0 0 64.719 70.016" enable-background="new 0 0 64.719 70.016" xml:space="preserve">
<rect fill="#2794D2" width="64.719" height="70.016"/>
<g>
	<path fill-rule="evenodd" clip-rule="evenodd" fill="#FFFFFF" d="M21.89,43.8c2.181-1.694,4.347-3.169,6.67-4.408
		c2.22-1.192,4.517-2.176,6.979-2.701c4.029-0.863,7.882-0.283,11.538,1.581c3.63,1.861,6.589,4.526,9.155,7.659
		c0.367,0.451,0.484,0.773,0.063,1.29c-2.853,3.516-6.16,6.454-10.336,8.316c-4.21,1.877-8.486,1.921-12.808,0.427
		c-3.702-1.277-7.045-3.229-10.187-5.538c-0.133-0.103-0.256-0.213-0.392-0.31c-0.666-0.475-0.682-0.482-1.119,0.215
		c-1.029,1.648-2.262,3.105-3.796,4.292c-1.513,1.18-3.189,1.981-5.063,2.336c-0.388,0.077-0.89,0.3-1.167-0.08
		c-0.254-0.347,0.126-0.704,0.299-1.021c0.836-1.545,1.551-3.141,2.057-4.83c1.109-3.675,0.71-7.261-0.821-10.739
		c-0.456-1.025-1.013-2.009-1.503-3.023c-0.316-0.655-0.199-0.851,0.51-0.797c1.095,0.08,2.129,0.404,3.119,0.851
		c2.418,1.112,4.314,2.831,5.815,4.999C21.213,42.765,21.504,43.216,21.89,43.8z"/>
	<path fill-rule="evenodd" clip-rule="evenodd" fill="#FFFFFF" d="M56.055,19.932c0.055,0.125,0.104,0.202,0.109,0.275
		c0.19,2.03-0.027,2.439-1.854,3.294c-2.556,1.197-4.87,0.545-7.067-0.955c-0.473-0.327-0.828-1.008-1.419-0.914
		c-0.479,0.085-0.874,0.6-1.317,0.909c-2.383,1.659-4.932,1.854-7.605,0.834c-0.942-0.365-1.839-0.826-2.615-1.469
		c-0.474-0.394-0.806-0.368-1.287-0.015c-1.411,1.085-2.975,1.793-4.764,2.06c-2.215,0.32-4.114-0.337-5.85-1.625
		c-0.997-0.731-0.979-0.747-2.022,0.045c-1.464,1.103-3.04,1.877-4.94,1.847c-1.491-0.021-2.757-0.593-3.912-1.465
		c-0.468-0.355-0.72-2.096-0.397-2.546c0.212-0.284,0.448-0.113,0.669-0.017c0.964,0.388,1.947,0.694,3.007,0.797
		c2.189,0.21,4.107-0.383,5.829-1.728c0.943-0.738,0.96-0.724,2.009-0.074c1.512,0.93,3.12,1.589,4.913,1.702
		c1.963,0.118,3.688-0.501,5.218-1.729c0.864-0.688,0.874-0.668,1.755,0.017c2.47,1.913,5.167,2.134,8.023,1.015
		c0.894-0.353,1.743-0.801,2.526-1.37c0.363-0.264,0.694-0.388,1.111-0.029c2.923,2.535,6.144,2.686,9.562,1.144
		C55.8,19.905,55.889,19.932,56.055,19.932z"/>
	<path fill-rule="evenodd" clip-rule="evenodd" fill="#FFFFFF" d="M56.225,28.169c0.166,0.759-0.235,1.293-0.939,1.754
		c-2.202,1.432-4.451,1.487-6.762,0.318c-0.708-0.357-1.407-0.766-1.957-1.339c-0.502-0.528-0.882-0.458-1.342,0.021
		c-0.47,0.477-1.055,0.814-1.647,1.129c-2.128,1.127-4.321,1.127-6.536,0.294c-1.02-0.375-1.982-0.888-2.844-1.566
		c-0.396-0.317-0.695-0.317-1.09,0c-0.848,0.682-1.793,1.215-2.82,1.597c-2.992,1.104-5.75,0.694-8.197-1.384
		c-0.51-0.422-0.81-0.479-1.327-0.002c-1.097,0.985-2.375,1.681-3.834,2.024c-2.085,0.481-3.872-0.129-5.481-1.416
		c-0.397-0.32-0.604-2.089-0.316-2.463c0.154-0.206,0.361-0.152,0.557-0.068c0.687,0.304,1.393,0.543,2.135,0.705
		c2.58,0.567,4.879-0.013,6.922-1.66c0.833-0.67,0.828-0.682,1.763-0.08c1.276,0.82,2.646,1.381,4.146,1.675
		c2.298,0.444,4.285-0.199,6.09-1.581c0.898-0.692,0.887-0.711,1.729-0.048c2.455,1.922,5.141,2.187,8.012,1.07
		c0.86-0.331,1.719-0.706,2.418-1.289c0.637-0.536,1.026-0.365,1.584,0.106c1.777,1.5,3.854,2.105,6.175,1.838
		c0.921-0.097,1.78-0.4,2.64-0.738c0.849-0.327,0.888-0.287,0.926,0.625C56.229,27.821,56.225,27.938,56.225,28.169z"/>
	<path fill-rule="evenodd" clip-rule="evenodd" fill="#1B95D2" d="M44.476,47.693c-1.544,0.026-2.814-1.191-2.825-2.709
		c-0.015-1.536,1.234-2.808,2.745-2.808c1.447,0,2.716,1.219,2.767,2.666C47.216,46.369,46.001,47.654,44.476,47.693z"/>
</g>
</svg>
