<?xml version="1.0" encoding="utf-8"?>
<!-- Generator: Adobe Illustrator 16.0.0, SVG Export Plug-In . SVG Version: 6.00 Build 0)  -->
<!DOCTYPE svg PUBLIC "-//W3C//DTD SVG 1.1//EN" "http://www.w3.org/Graphics/SVG/1.1/DTD/svg11.dtd">
<svg version="1.1" id="Layer_1" xmlns="http://www.w3.org/2000/svg" xmlns:xlink="http://www.w3.org/1999/xlink" x="0px" y="0px"
	 width="64.721px" height="70.016px" viewBox="0 0 64.721 70.016" enable-background="new 0 0 64.721 70.016" xml:space="preserve">
<rect fill="#63B448" width="64.721" height="70.016"/>
<g>
	<path fill-rule="evenodd" clip-rule="evenodd" fill="#FFFFFF" d="M29.44,24.862c1.293,0.418,2.376,0.966,3.24,1.867
		c1.966,2.063,2.45,4.512,1.513,7.131c-0.948,2.653-2.99,4.108-5.798,4.399c-0.876,0.093-1.771,0.015-2.651,0.015
		c-2.149,0-4.299-0.005-6.448,0.009c-2.005,0.01-3.657-0.683-4.651-2.481c-0.975-1.785-0.839-3.564,0.337-5.244
		c0.074-0.099,0.117-0.223,0.2-0.384c-1.41-1.023-2.201-2.386-2.113-4.173c0.097-1.947,1.623-3.819,3.54-4.053
		c0.941-0.114,1.225-0.482,1.441-1.308c0.642-2.404,2.716-4.159,5.018-4.365c2.763-0.245,4.985,0.914,6.194,3.245
		c0.685,1.315,0.867,2.704,0.498,4.155C29.667,24.039,29.564,24.403,29.44,24.862z"/>
	<path fill-rule="evenodd" clip-rule="evenodd" fill="#FFFFFF" d="M32.43,48.999c6.445-0.015,12.891-0.027,19.337-0.044
		c0.254,0,0.511,0.017,0.763,0c0.591-0.035,0.827,0.225,0.82,0.826c-0.029,2.69,0.266,2.178-2.073,2.184
		c-12.681,0.049-25.365,0.075-38.046,0.1c-1.468,0.002-1.61,0.367-1.595-1.552c0-0.168-0.007-0.338,0-0.509
		c0.034-0.86,0.083-0.933,0.946-0.941c1.986-0.029,3.963-0.023,5.941-0.029C23.16,49.024,27.794,49.012,32.43,48.999z"/>
	<path fill-rule="evenodd" clip-rule="evenodd" fill="#FFFFFF" d="M32.451,54.052c6.458-0.019,12.908-0.035,19.359-0.048
		c0.298,0,0.59,0.013,0.887-0.006c0.492-0.018,0.664,0.235,0.664,0.698c-0.012,2.789,0.268,2.278-2.125,2.288
		c-12.568,0.042-25.137,0.064-37.703,0.097c-0.252,0-0.506,0.005-0.76,0c-1.1-0.019-1.109-0.019-1.122-1.157
		c-0.024-2.204-0.059-1.813,1.826-1.826C19.803,54.074,26.128,54.071,32.451,54.052z"/>
	<path fill-rule="evenodd" clip-rule="evenodd" fill="#FFFFFF" d="M41.834,31.664c0.953-0.009,1.873,0.291,2.692,0.839
		c0.49,0.324,0.86,0.345,1.364,0.008c1.003-0.679,2.137-0.949,3.357-0.86c1.055,0.085,1.927,0.561,2.705,1.233
		c0.236,0.201,0.433,0.446,0.252,0.77c-0.202,0.354-0.498,0.184-0.775,0.084c-1.981-0.688-3.719-0.105-5.326,1.074
		c-0.897,0.666-0.885,0.655-1.785-0.005c-1.61-1.178-3.346-1.746-5.324-1.014c-0.244,0.089-0.477,0.197-0.673-0.071
		c-0.235-0.304-0.066-0.566,0.151-0.771C39.398,32.071,40.496,31.615,41.834,31.664z"/>
	<path fill-rule="evenodd" clip-rule="evenodd" fill="#FFFFFB" d="M22.912,43.094c0-0.798,0.021-1.597-0.011-2.403
		c-0.022-0.566,0.142-0.841,0.776-0.831c2.644,0.036,2.181-0.278,2.223,2.061c0.021,1.219-0.009,2.437,0.016,3.666
		c0.012,0.618-0.177,0.912-0.866,0.895c-2.578-0.053-2.073,0.306-2.131-1.998C22.91,44.017,22.915,43.56,22.912,43.094z"/>
	<path fill-rule="evenodd" clip-rule="evenodd" fill="#FFFFFF" d="M45.594,22.35c-0.056,0.358-0.292,0.479-0.625,0.374
		c-0.485-0.162-0.969-0.248-1.481-0.203c-1.132,0.097-2.136,0.51-2.917,1.327c-0.523,0.544-0.928,0.501-1.511,0.091
		c-1.3-0.908-2.728-1.27-4.278-0.666c-0.277,0.108-0.563,0.305-0.76-0.062c-0.156-0.289-0.017-0.566,0.215-0.782
		c1.181-1.107,2.603-1.486,4.065-0.876c1.032,0.428,1.778,0.372,2.724-0.185c1.342-0.792,2.74-0.587,4.031,0.287
		C45.3,21.822,45.521,22.017,45.594,22.35z"/>
	<path fill-rule="evenodd" clip-rule="evenodd" fill="#FBFCFA" d="M44.328,16.213c0.713-0.028,1.433,0.231,1.973,0.795
		c0.453,0.487,0.896,0.615,1.556,0.501c1.182-0.199,2.267,0.073,3.047,1.085c0.161,0.193,0.333,0.389,0.349,0.655
		c0.011,0.175-0.019,0.339-0.162,0.457c-0.146,0.126-0.314,0.118-0.455,0c-1.159-0.942-2.414-0.815-3.689-0.306
		c-0.391,0.154-0.656,0.046-0.872-0.259c-0.8-1.13-1.804-1.864-3.265-1.777c-0.153,0.003-0.332-0.054-0.381-0.256
		c-0.046-0.189,0.027-0.34,0.152-0.456C43.057,16.229,43.649,16.213,44.328,16.213z"/>
</g>
</svg>
