<?xml version="1.0" encoding="utf-8"?>
<!-- Generator: Adobe Illustrator 16.0.0, SVG Export Plug-In . SVG Version: 6.00 Build 0)  -->
<!DOCTYPE svg PUBLIC "-//W3C//DTD SVG 1.1//EN" "http://www.w3.org/Graphics/SVG/1.1/DTD/svg11.dtd">
<svg version="1.1" id="Layer_1" xmlns="http://www.w3.org/2000/svg" xmlns:xlink="http://www.w3.org/1999/xlink" x="0px" y="0px"
	 width="64.72px" height="70.016px" viewBox="0 0 64.72 70.016" enable-background="new 0 0 64.72 70.016" xml:space="preserve">
<rect fill="#E52240" width="64.72" height="70.016"/>
<g>
	<path fill-rule="evenodd" clip-rule="evenodd" fill="#FFFFFF" d="M50.954,37.195c0.428,2.511,1.299,4.903,1.895,7.374
		c0.138,0.587,0.285,1.188,0.438,1.815c-0.732,0.281-1.414,0.179-2.065,0.135c-0.946-0.081-1.143,0.352-1.126,1.189
		c0.029,2.199-0.006,4.407-0.017,6.608c-0.003,0.34,0.019,0.683-0.01,1.02c-0.101,1.155-0.69,1.792-1.633,1.781
		c-0.944-0.013-1.551-0.665-1.563-1.824c-0.024-2.383,0.013-4.75,0.017-7.132c0-0.398-0.004-0.795-0.022-1.186
		c-0.008-0.162-0.088-0.321-0.275-0.361c-0.291-0.055-0.406,0.144-0.408,0.375c-0.026,0.789-0.036,1.581-0.043,2.375
		c-0.003,1.756-0.012,3.507-0.023,5.262c0,0.337,0.027,0.685-0.032,1.02c-0.149,0.869-0.81,1.438-1.616,1.451
		c-0.878,0.009-1.555-0.613-1.609-1.616c-0.056-1.07-0.01-2.149-0.004-3.229c0.004-1.3,0.019-2.598,0.017-3.897
		c-0.008-2.105,0.218-1.832-1.758-1.858c-0.394-0.011-0.784-0.011-1.366-0.011c0.611-3.361,1.881-6.438,2.49-9.67
		c0.166-0.737,0.084-1.512,0.316-2.028c-0.033,0.36-0.236,0.861-0.675,1.245c-0.45,1.402-0.867,2.813-1.364,4.194
		c-0.403,1.136-0.681,1.321-1.891,1.035c-0.551-0.137-0.709,0.065-0.908,0.418c-0.669,1.189-1.332,2.369-1.997,3.559
		c-0.345,0.623-0.41,1.259-0.209,1.96c0.363,1.249,0.673,2.51,1.015,3.764c0.089,0.339,0.229,0.76-0.269,0.78
		c-0.926,0.046-0.916,0.62-0.901,1.282c0.02,0.909,0.033,1.818-0.021,2.72c-0.045,0.842-0.556,1.323-1.25,1.307
		c-0.679-0.01-1.162-0.512-1.203-1.35c-0.043-0.906,0.019-1.815-0.012-2.722c-0.008-0.36,0.189-0.804-0.259-1.076
		c-0.544,0.014-0.396,0.444-0.406,0.724c-0.026,1.022,0.017,2.042-0.031,3.064c-0.046,0.848-0.532,1.327-1.222,1.35
		c-0.703,0.01-1.244-0.444-1.31-1.297c-0.073-0.949-0.01-1.924-0.026-2.883c-0.004-0.378,0.13-0.961-0.34-1.023
		c-1.031-0.126-0.793-0.709-0.611-1.329c0.051-0.159,0.113-0.314,0.156-0.479c1.184-4.33,1.125-4.665-1.351-8.362
		c-0.237-0.356-0.399-0.486-0.921-0.359c-1.381,0.314-1.835-0.093-1.862-1.567c-0.038-1.869,0.008-3.738,0.013-5.611
		c-0.005-0.453-0.005-0.905-0.033-1.357c-0.018-0.285-0.109-0.568-0.492-0.525c-0.282,0.034-0.346,0.263-0.358,0.487
		c-0.021,0.454-0.033,0.907-0.038,1.363c-0.026,6.685-0.056,13.371-0.084,20.051c-0.004,0.455,0.036,0.918-0.047,1.362
		c-0.165,0.878-0.975,1.493-1.819,1.469c-0.783-0.019-1.53-0.609-1.7-1.42c-0.098-0.438-0.061-0.902-0.058-1.355
		c0.015-3.626,0.036-7.245,0.036-10.871c0-0.533,0.183-1.123-0.386-1.632c-0.604,0.351-0.417,0.907-0.42,1.351
		c-0.032,3.571-0.035,7.141-0.06,10.711c-0.007,0.555-0.012,1.135-0.129,1.684c-0.221,1.007-1.054,1.614-1.943,1.514
		c-0.838-0.096-1.503-0.781-1.6-1.728c-0.045-0.439-0.011-0.9-0.011-1.353c0.029-6.682,0.069-13.369,0.069-20.057
		c0-0.555,0.371-1.542-0.415-1.576c-0.869-0.033-0.477,0.971-0.498,1.507c-0.065,1.531-0.009,3.062-0.046,4.591
		c-0.035,1.147,0.024,2.175-0.818,3.295c-0.74,0.968-0.645,2.578-0.9,3.909c-0.617,3.219-1.226,6.445-1.836,9.664
		c-0.014,0.059,0,0.124-0.031,0.17c-0.271,0.421,0.031,1.394-0.777,1.241c-0.865-0.164-0.296-0.935-0.207-1.411
		c0.773-4.116,1.586-8.216,2.366-12.32c0.13-0.708,0.357-1.418-0.126-2.135c-0.189-0.287-0.134-0.769-0.134-1.155
		c0-2.719,0.122-5.446-0.005-8.163c-0.082-1.847,1.499-4.024,3.648-4.19c2.598-0.21,5.212-0.264,7.796,0.045
		c2.232,0.256,3.589,1.937,3.623,4.217c0.041,2.376-0.005,4.758-0.021,7.14c0,0.533-0.02,1.002,0.781,0.94
		c0.49-0.033,0.76,0.417,0.991,0.828c0.259,0.435,0.554,0.856,0.795,1.302c0.417,0.758,0.991,1.213,1.915,1.077
		c0.221-0.034,0.463-0.044,0.675,0c1.71,0.347,2.788-0.384,3.489-1.914c0.301-0.646,0.636-1.372,1.593-1.27
		c0.589,0.067,0.569-0.443,0.679-0.795c0.678-2.152,1.336-4.319,2.027-6.472c0.168-0.533,0.363-1.07,0.632-1.563
		c0.612-1.127,1.522-1.76,2.882-1.723c1.863,0.057,3.739,0.084,5.606,0.01c1.599-0.054,2.672,0.703,3.154,2.088
		c0.966,2.774,1.794,5.598,2.601,8.42c0.291,1.02-0.146,1.711-0.932,1.894c-0.698,0.159-1.272-0.209-1.606-1.173
		c-0.442-1.289-0.806-2.591-1.213-3.882c-0.525-0.443-0.622-1.08-0.676-1.384C50.795,35.536,50.847,36.375,50.954,37.195z"/>
	<path fill-rule="evenodd" clip-rule="evenodd" fill="#FFFFFF" d="M19.751,26.069c-1.791-0.01-3.279-1.485-3.246-3.23
		c0.031-1.709,1.63-3.232,3.338-3.185c1.727,0.057,3.06,1.438,3.077,3.196C22.937,24.706,21.59,26.069,19.751,26.069z"/>
	<path fill-rule="evenodd" clip-rule="evenodd" fill="#FFFFFF" d="M49.65,24.651c0.017,1.65-1.338,3.004-3.005,3.028
		c-1.684,0.032-3.032-1.252-3.076-2.924c-0.05-1.755,1.314-3.139,3.064-3.124C48.284,21.646,49.639,23.009,49.65,24.651z"/>
	<path fill-rule="evenodd" clip-rule="evenodd" fill="#FFFBFC" d="M32.632,36.317c1.461,0.027,2.501,1.133,2.455,2.617
		c-0.04,1.361-1.127,2.445-2.472,2.461c-1.368,0.023-2.606-1.201-2.604-2.561C30.013,37.434,31.204,36.301,32.632,36.317z"/>
	<path fill-rule="evenodd" clip-rule="evenodd" fill="#E74C4E" d="M50.954,37.195c-0.779-1.929-0.924-2.558-0.843-4.194
		c0.811,1.219,0.991,2.329,1.203,3.419C51.024,36.599,51.026,36.917,50.954,37.195z"/>
	<path fill-rule="evenodd" clip-rule="evenodd" fill="#E74C4E" d="M41.879,36.032c0.167-0.962,0.38-1.907,0.951-2.872
		c0.353,1.084,0.267,1.549-0.593,3.655C42.161,36.532,42.172,36.214,41.879,36.032z"/>
</g>
</svg>
