<?xml version="1.0" encoding="utf-8"?>
<!-- Generator: Adobe Illustrator 16.0.0, SVG Export Plug-In . SVG Version: 6.00 Build 0)  -->
<!DOCTYPE svg PUBLIC "-//W3C//DTD SVG 1.1//EN" "http://www.w3.org/Graphics/SVG/1.1/DTD/svg11.dtd">
<svg version="1.1" id="Layer_1" xmlns="http://www.w3.org/2000/svg" xmlns:xlink="http://www.w3.org/1999/xlink" x="0px" y="0px"
	 width="64.72px" height="70.016px" viewBox="0 0 64.72 70.016" enable-background="new 0 0 64.72 70.016" xml:space="preserve">
<rect fill="#E4B631" width="64.72" height="70.016"/>
<g>
	<path fill-rule="evenodd" clip-rule="evenodd" fill="#FFFFFF" d="M53.07,38.619c-0.208-0.004-0.405-0.004-0.609-0.01
		c-6.715-0.067-13.429-0.14-20.138-0.216c-6.877-0.073-13.75-0.15-20.629-0.22c-1.329-0.014-1.389,0.064-1.145,1.382
		c0.681,3.635,2.352,6.77,4.818,9.49c2.473,2.715,5.469,4.654,8.903,5.904c0.558,0.208,0.874,0.406,0.874,1.082
		c0,0.866,0.128,0.957,1.01,0.969c4.166,0.057,8.332,0.104,12.498,0.133c0.828,0.009,1.084-0.176,1.055-0.962
		c-0.025-0.774,0.336-1.015,0.98-1.25c2.804-1.013,5.318-2.524,7.512-4.56c3.048-2.825,5.08-6.253,6.016-10.304
		C54.497,38.841,54.32,38.644,53.07,38.619z"/>
	<path fill-rule="evenodd" clip-rule="evenodd" fill="#FFFFFF" d="M32.698,36.695c0.752,0.005,1.354,0.018,1.953,0.014
		c0.945,0,1.005-0.051,1.153-0.979c0.026-0.157,0.023-0.317,0.031-0.482c0.128-2.105-0.71-3.856-2.063-5.385
		c-1.443-1.626-1.763-3.463-1.229-5.517c0.261-1.029,0.741-1.953,1.253-2.87c0.559-1,0.008-1.867-1.13-1.867
		c-0.516,0-0.955,0.175-1.243,0.622c-2.129,3.247-3.049,7.584,0.106,11.045C32.909,32.791,33.419,34.534,32.698,36.695z"/>
	<path fill-rule="evenodd" clip-rule="evenodd" fill="#FFFFFF" d="M24.231,36.488c0.366,0.162,0.696,0.118,1.014,0.123
		c2.041,0.039,2.23-0.164,2.097-2.254c-0.013-0.2-0.056-0.397-0.088-0.597c-0.245-1.619-1.063-2.942-2.124-4.139
		c-1.313-1.493-1.574-3.229-1.183-5.098c0.249-1.148,0.765-2.199,1.372-3.211c0.497-0.834,0.072-1.631-0.877-1.775
		c-0.65-0.097-1.186,0.095-1.578,0.658c-0.557,0.807-0.978,1.678-1.296,2.593c-1.033,2.941-0.852,5.729,1.27,8.168
		C24.257,32.583,24.975,34.348,24.231,36.488z"/>
	<path fill-rule="evenodd" clip-rule="evenodd" fill="#FFFFFF" d="M41.249,36.68c0.608,0.195,1.176,0.107,1.731,0.119
		c1.178,0.021,1.222-0.023,1.348-1.157c0.032-0.316,0.038-0.646,0.024-0.964c-0.074-1.867-0.902-3.411-2.106-4.772
		c-1.371-1.557-1.706-3.321-1.228-5.301c0.26-1.075,0.727-2.046,1.268-2.995c0.601-1.055,0.038-1.934-1.172-1.912
		c-0.642,0.016-1.041,0.376-1.356,0.875c-0.665,1.071-1.175,2.212-1.477,3.43c-0.651,2.635-0.247,5.06,1.583,7.133
		C41.299,32.757,42.003,34.534,41.249,36.68z"/>
</g>
</svg>
