<?xml version="1.0" encoding="utf-8"?>
<!-- Generator: Adobe Illustrator 16.0.0, SVG Export Plug-In . SVG Version: 6.00 Build 0)  -->
<!DOCTYPE svg PUBLIC "-//W3C//DTD SVG 1.1//EN" "http://www.w3.org/Graphics/SVG/1.1/DTD/svg11.dtd">
<svg version="1.1" id="Layer_1" xmlns="http://www.w3.org/2000/svg" xmlns:xlink="http://www.w3.org/1999/xlink" x="0px" y="0px"
	 width="64.721px" height="70.015px" viewBox="0 0 64.721 70.015" enable-background="new 0 0 64.721 70.015" xml:space="preserve">
<rect fill="#C62231" width="64.721" height="70.015"/>
<g>
	<path fill-rule="evenodd" clip-rule="evenodd" fill="#FFFFFF" d="M27.729,53.781c-0.208,0.089-0.403,0.027-0.601-0.035
		c-4.462-1.382-8.928-2.782-13.403-4.128c-0.627-0.192-0.842-0.45-0.837-1.103c0.075-8.803,0.118-17.598,0.169-26.402
		c0-0.115,0.035-0.226,0.055-0.334c0.351-0.164,0.566,0.096,0.794,0.229c4.431,2.582,8.849,5.194,13.291,7.764
		c0.564,0.321,0.786,0.666,0.778,1.343c-0.07,7.316-0.104,14.642-0.148,21.961C27.827,53.314,27.883,53.564,27.729,53.781z"/>
	<path fill-rule="evenodd" clip-rule="evenodd" fill="#FFFFFF" d="M44.601,21.899c0,0.371-0.005,0.697-0.005,1.016
		c-0.05,8.48-0.097,16.961-0.152,25.437c-0.005,1.195,0.239,1.114-1.094,1.503c-4.412,1.292-8.821,2.6-13.229,3.894
		c-0.19,0.054-0.391,0.088-0.583,0.13c-0.293-0.315-0.174-0.657-0.174-0.959c0.034-7.202,0.091-14.406,0.104-21.608
		c0-0.752,0.237-1.155,0.9-1.523c4.445-2.487,8.862-5.029,13.293-7.551C43.899,22.103,44.116,21.896,44.601,21.899z"/>
	<path fill-rule="evenodd" clip-rule="evenodd" fill="#FFFFFF" d="M11.547,21.628c-0.003,0.573-0.003,1.016-0.006,1.461
		c-0.054,8.725-0.106,17.447-0.153,26.172c-0.002,0.242,0.036,0.5-0.014,0.737c-0.127,0.643,0.244,0.862,0.773,1.008
		c2.41,0.68,4.814,1.365,7.226,2.052c2.483,0.707,4.974,1.4,7.455,2.134c1.222,0.357,2.397,0.357,3.624-0.042
		c4.799-1.558,9.619-3.057,14.424-4.587c1.041-0.333,1.041-0.335,1.048-1.417c0.053-8.685,0.103-17.365,0.152-26.048
		c0.004-0.394,0.006-0.792,0.009-1.367c1.029,0.65,1.724,1.104,1.707,2.406c-0.122,8.728-0.134,17.447-0.195,26.167
		c-0.011,1.3,0.231,1.042-1.118,1.464c-5.33,1.66-10.655,3.316-15.979,4.988c-1.212,0.38-2.402,0.404-3.627,0.053
		c-5.369-1.524-10.738-3.036-16.109-4.558c-1.027-0.285-1.03-0.295-1.025-1.414c0.053-8.884,0.132-17.774,0.122-26.66
		C9.857,22.925,10.269,22.169,11.547,21.628z"/>
	<path fill-rule="evenodd" clip-rule="evenodd" fill="#FFFFFF" d="M54.133,54.926c-0.729-2.874-1.766-5.627-1.683-8.709
		c0.176-6.825,0.118-13.651,0.159-20.48c0-0.249,0.022-0.5,0.006-0.741c-0.034-0.467,0.151-0.667,0.64-0.639
		c0.932,0.065,1.879-0.069,2.811,0.104c0.313,0.872,0.13,1.776,0.127,2.664c-0.021,6.866-0.077,13.738-0.102,20.606
		c-0.003,0.956-0.124,1.871-0.412,2.784c-0.414,1.291-0.768,2.599-1.146,3.898C54.476,54.608,54.448,54.819,54.133,54.926z"/>
	<path fill-rule="evenodd" clip-rule="evenodd" fill="#FFFBFC" d="M54.362,23.093c-0.082,0-0.166,0-0.246-0.003
		c-1.645-0.04-1.513,0.311-1.468-1.645c0.03-1.435,0.813-2.197,2.001-2.082c0.76,0.079,1.437,0.625,1.534,1.371
		c0.089,0.646,0.04,1.309,0.03,1.965c-0.001,0.315-0.226,0.396-0.501,0.396c-0.448,0-0.903-0.006-1.351-0.006V23.093z"/>
</g>
</svg>
