<?xml version="1.0" encoding="utf-8"?>
<!-- Generator: Adobe Illustrator 16.0.0, SVG Export Plug-In . SVG Version: 6.00 Build 0)  -->
<!DOCTYPE svg PUBLIC "-//W3C//DTD SVG 1.1//EN" "http://www.w3.org/Graphics/SVG/1.1/DTD/svg11.dtd">
<svg version="1.1" id="Layer_1" xmlns="http://www.w3.org/2000/svg" xmlns:xlink="http://www.w3.org/1999/xlink" x="0px" y="0px"
	 width="64.721px" height="70.015px" viewBox="0 0 64.721 70.015" enable-background="new 0 0 64.721 70.015" xml:space="preserve">
<rect fill="#E84430" width="64.721" height="70.015"/>
<g>
	<path fill-rule="evenodd" clip-rule="evenodd" fill="#FFFFFF" d="M41.898,19.583c-0.916,0-1.826,0.007-2.738-0.014
		c-0.799-0.015-0.822-0.041-0.834-0.86c-0.01-0.57-0.008-1.15,0.002-1.723c0.016-0.825,0.021-0.844,0.832-0.851
		c2.184-0.01,4.373,0,6.561,0.006c0.541,0,1.076,0.006,1.613,0.014c0.883,0.016,0.895,0.021,0.895,0.866
		c0.002,1.954-0.008,3.917-0.012,5.875c-0.002,0.844-0.021,1.689-0.004,2.533c0.008,0.444-0.158,0.626-0.6,0.611
		c-0.732-0.018-1.461-0.023-2.191-0.002c-0.484,0.009-0.689-0.187-0.674-0.683c0.023-0.879,0.012-1.763,0.014-2.631
		c-0.398-0.137-0.504,0.189-0.674,0.354c-0.939,0.912-1.859,1.831-2.781,2.76c-0.621,0.621-0.615,0.625-0.168,1.417
		c2.178,3.837,2.414,7.8,0.555,11.799c-1.664,3.579-4.516,5.836-8.322,6.876c-0.975,0.266-0.98,0.25-0.988,1.272
		c-0.002,0.611,0.023,1.231-0.014,1.845c-0.033,0.576,0.135,0.84,0.77,0.802c0.807-0.048,1.615,0.014,2.416-0.011
		c0.498-0.015,0.693,0.174,0.678,0.667c-0.025,0.805-0.02,1.615-0.01,2.419c0.012,0.505-0.223,0.664-0.701,0.648
		c-0.729-0.027-1.459-0.007-2.188-0.014c-1.102-0.007-0.957-0.007-0.969,1.02c-0.008,0.655-0.025,1.311,0,1.96
		c0.018,0.538-0.176,0.77-0.736,0.747c-0.803-0.032-1.609-0.028-2.416-0.006c-0.508,0.01-0.67-0.229-0.66-0.706
		c0.025-0.726,0-1.458,0.014-2.187c0.016-0.917-0.057-0.849-0.801-0.846c-0.803,0.005-1.609-0.021-2.418,0.005
		c-0.48,0.013-0.709-0.164-0.699-0.66c0.016-0.807,0.023-1.618,0.002-2.419c-0.014-0.517,0.225-0.663,0.697-0.653
		c0.846,0.021,1.689-0.01,2.535,0.02c0.471,0.01,0.746-0.114,0.695-0.638c-0.01-0.111,0.002-0.23,0.002-0.346
		c-0.002-0.807,0.234-1.728-0.072-2.387c-0.338-0.704-1.41-0.525-2.15-0.771c-5.559-1.829-9.123-7.274-8.615-13.22
		c0.482-5.654,4.99-10.391,10.656-11.238c3.268-0.492,6.242,0.235,8.984,2.023c0.711,0.465,0.719,0.475,1.314-0.112
		c1.113-1.103,2.217-2.212,3.324-3.32C41.98,19.744,41.939,19.662,41.898,19.583z"/>
	<path fill-rule="evenodd" clip-rule="evenodd" fill="#EE402D" d="M21.125,33.55c-0.121-4.766,4.182-9.227,9.43-9.065
		c4.918,0.144,8.996,4.251,8.963,9.227c-0.035,5.146-4.213,9.284-9.355,9.194C24.578,42.807,20.869,38.023,21.125,33.55z"/>
	<path fill-rule="evenodd" clip-rule="evenodd" fill="#FFFFFF" d="M30.404,34.698c1.607,0,3.215-0.006,4.826,0.012
		c0.869,0.006,0.869,0.024,0.889,0.915c0.049,2.118,0.049,2.118-2.094,2.115c-2.795-0.011-5.592-0.015-8.385-0.028
		c-1.029-0.003-1.029-0.011-1.043-0.964c-0.027-2.068-0.027-2.068,2.018-2.067c0.652,0.005,1.303,0.009,1.951,0.009
		C29.18,34.69,29.793,34.692,30.404,34.698z"/>
	<path fill-rule="evenodd" clip-rule="evenodd" fill="#FFFFFF" d="M30.279,32.846c-1.645-0.002-3.293-0.021-4.938,0
		c-0.523,0.008-0.791-0.119-0.738-0.703c0.068-0.721-0.273-1.614,0.143-2.124c0.445-0.548,1.365-0.182,2.076-0.189
		c2.795-0.021,5.592,0,8.387,0.014c0.898,0.002,0.904,0.021,0.92,0.879c0.01,0.497-0.021,0.992,0.006,1.492
		c0.027,0.511-0.209,0.659-0.684,0.653C33.729,32.846,32.004,32.854,30.279,32.846z"/>
</g>
</svg>
