<?xml version="1.0" encoding="utf-8"?>
<!-- Generator: Adobe Illustrator 16.0.0, SVG Export Plug-In . SVG Version: 6.00 Build 0)  -->
<!DOCTYPE svg PUBLIC "-//W3C//DTD SVG 1.1//EN" "http://www.w3.org/Graphics/SVG/1.1/DTD/svg11.dtd">
<svg version="1.1" id="Layer_1" xmlns="http://www.w3.org/2000/svg" xmlns:xlink="http://www.w3.org/1999/xlink" x="0px" y="0px"
	 width="64.72px" height="70.016px" viewBox="0 0 64.72 70.016" enable-background="new 0 0 64.72 70.016" xml:space="preserve">
<rect fill="#2CBBE1" width="64.72" height="70.016"/>
<path fill="#FFFFFF" d="M47.3,16.496c-0.157-0.011-0.313-0.006-0.475-0.006c-8.936-0.071-17.869-0.143-26.806-0.208
	c-0.238-0.004-0.476-0.015-0.714,0c-0.71,0.043-0.847,0.196-0.746,0.87c0.097,0.664,0.235,1.325,0.338,1.99
	c0.784,5.084,1.56,10.178,2.353,15.262c0.575,3.676,1.18,7.35,1.759,11.022c0.161,1.008,0.245,1.112,1.289,1.134
	c1.429,0.022,2.858,0.037,4.287,0.029c0.551,0,0.814,0.123,0.917,0.765c0.171,1.108,0.055,2.225,0.291,3.316
	c0.094,0.448-0.186,0.528-0.551,0.555c-0.558,0.045-1.146-0.158-1.811,0.218c1.739,1.771,3.403,3.468,5.075,5.153
	c0.644,0.648,0.663,0.65,1.295,0.031c1.536-1.501,3.063-3.006,4.587-4.514c0.182-0.186,0.472-0.315,0.418-0.746
	c-0.508-0.142-1.063-0.047-1.596-0.078c-0.351-0.019-0.689-0.101-0.6-0.532c0.245-1.093,0.146-2.214,0.32-3.312
	c0.095-0.56,0.326-0.808,0.936-0.788c1.505,0.046,3.019,0.043,4.524,0.041c0.957,0,0.988-0.041,1.139-0.961
	c0.593-3.675,1.185-7.347,1.781-11.022c0.939-5.74,1.887-11.485,2.833-17.228C48.278,16.664,48.168,16.543,47.3,16.496z
	 M37.459,39.151c-0.797,1.313-1.969,2.04-3.518,2.079c-0.751,0.022-1.514,0.095-2.243-0.128c-2.349-0.725-3.733-2.876-3.014-5.88
	c0.128-0.539,0.348-1.057,0.65-1.525c1.289-1.994,2.591-3.975,4.008-6.146c0.774,1.182,1.425,2.167,2.063,3.162
	c0.62,0.964,1.283,1.909,1.834,2.914C38.216,35.416,38.597,37.268,37.459,39.151z M46.791,18.437
	c-0.219,1.247-0.467,2.496-0.673,3.747c-0.073,0.414-0.296,0.52-0.659,0.477c-1.07-0.138-2.024,0.219-3.001,0.591
	c-1.407,0.542-2.848,0.974-4.374,1.06c-2.16,0.128-4.164-0.432-6.126-1.25c-1.431-0.596-2.868-1.175-4.476-1.037
	c-0.519,0.042-1.018,0.105-1.507,0.301c-1.29,0.53-2.643,0.854-4.016,1.072c-0.861,0.136-1.016,0.026-1.189-0.847
	c-0.282-1.401-0.532-2.8-0.812-4.203c-0.097-0.461,0.044-0.679,0.524-0.664c0.28,0.006,0.56,0,0.837,0.001
	c4.014,0.034,8.027,0.064,12.039,0.095c4.012,0.033,8.023,0.062,12.039,0.093c0.313,0.003,0.634,0.013,0.95,0.018
	C46.712,17.9,46.85,18.11,46.791,18.437z"/>
</svg>
