<?xml version="1.0" encoding="utf-8"?>
<!-- Generator: Adobe Illustrator 16.0.0, SVG Export Plug-In . SVG Version: 6.00 Build 0)  -->
<!DOCTYPE svg PUBLIC "-//W3C//DTD SVG 1.1//EN" "http://www.w3.org/Graphics/SVG/1.1/DTD/svg11.dtd">
<svg version="1.1" id="Layer_1" xmlns="http://www.w3.org/2000/svg" xmlns:xlink="http://www.w3.org/1999/xlink" x="0px" y="0px"
	 width="64.721px" height="70.016px" viewBox="0 0 64.721 70.016" enable-background="new 0 0 64.721 70.016" xml:space="preserve">
<rect fill="#F9C21C" width="64.721" height="70.016"/>
<g>
	<g>
		<path fill-rule="evenodd" clip-rule="evenodd" fill="#FFFFFF" d="M32.429,23.678c0.529,0,0.904-0.338,1.02-0.933
			c0.013-0.07,0.018-0.154,0.018-0.229c-0.01-1.517,0.009-3.039-0.031-4.555c-0.017-0.705-0.512-1.183-1.063-1.154
			c-0.555,0.025-0.939,0.5-0.963,1.242c-0.018,0.737,0.004,1.479,0.009,2.222c0,0,0.002,0,0.004,0
			c0.006,0.819-0.025,1.635,0.026,2.451C31.486,23.328,31.896,23.673,32.429,23.678z"/>
		<path fill-rule="evenodd" clip-rule="evenodd" fill="#FFFFFF" d="M32.579,50.2c-0.574-0.014-0.999,0.522-1.019,1.328
			c-0.017,0.703,0,1.408,0.006,2.116c0.003,0.742-0.013,1.488,0.014,2.231c0.032,0.777,0.402,1.206,0.999,1.212
			c0.596,0.003,1.012-0.421,1.024-1.192c0.026-1.484,0.015-2.977-0.014-4.466C33.57,50.701,33.13,50.216,32.579,50.2z"/>
		<path fill-rule="evenodd" clip-rule="evenodd" fill="#FFFFFF" d="M25.977,48.51c-0.478-0.313-0.9-0.135-1.249,0.23
			c-0.156,0.163-0.254,0.393-0.367,0.595c-0.633,1.115-1.267,2.234-1.898,3.353c-0.129,0.236-0.283,0.479-0.342,0.736
			c-0.145,0.63,0.317,1.189,0.959,1.182c0.301-0.043,0.612-0.116,0.781-0.412c0.848-1.492,1.697-2.973,2.516-4.48
			C26.638,49.227,26.419,48.802,25.977,48.51z"/>
		<path fill-rule="evenodd" clip-rule="evenodd" fill="#FFFFFF" d="M15.47,28.439c1.363,0.771,2.715,1.563,4.094,2.301
			c0.751,0.408,1.512-0.022,1.521-0.779c0.004-0.389-0.163-0.685-0.496-0.873c-1.434-0.809-2.867-1.611-4.297-2.423
			c-0.508-0.287-0.923-0.119-1.244,0.285c-0.305,0.386-0.18,1.04,0.219,1.374C15.326,28.372,15.402,28.404,15.47,28.439z"/>
		<path fill-rule="evenodd" clip-rule="evenodd" fill="#FFFFFF" d="M45.382,30.6c1.368-0.763,2.717-1.565,4.071-2.347
			c0.373-0.214,0.595-0.505,0.57-0.946c-0.021-0.792-0.744-1.184-1.528-0.757c-1.373,0.752-2.726,1.548-4.066,2.355
			c-0.562,0.338-0.725,0.925-0.467,1.389C44.229,30.779,44.791,30.927,45.382,30.6z"/>
		<path fill-rule="evenodd" clip-rule="evenodd" fill="#FFFFFF" d="M49.353,45.374c-1.224-0.692-2.447-1.385-3.664-2.08
			c-0.244-0.14-0.479-0.264-0.765-0.268c-0.671-0.011-1.108,0.509-0.976,1.15c0.078,0.387,0.348,0.597,0.659,0.776
			c1.29,0.729,2.58,1.464,3.872,2.189c0.169,0.093,0.357,0.173,0.545,0.202c0.42,0.056,0.807-0.066,0.99-0.461
			c0.19-0.41,0.185-0.843-0.179-1.187C49.698,45.569,49.521,45.471,49.353,45.374z"/>
		<path fill-rule="evenodd" clip-rule="evenodd" fill="#FFFFFF" d="M40.477,48.767c-0.326-0.53-0.866-0.611-1.319-0.334
			c-0.461,0.285-0.619,0.775-0.336,1.318c0.451,0.871,0.961,1.703,1.449,2.552c0.332,0.578,0.659,1.159,1.011,1.718
			c0.298,0.47,0.754,0.535,1.244,0.375c0.433-0.142,0.563-0.502,0.56-1.004c-0.025-0.079-0.043-0.244-0.116-0.375
			C42.147,51.598,41.338,50.165,40.477,48.767z"/>
		<path fill-rule="evenodd" clip-rule="evenodd" fill="#FFFFFF" d="M39.564,25.523c0.393-0.012,0.664-0.209,0.851-0.542
			c0.789-1.393,1.598-2.777,2.356-4.191c0.303-0.56,0.135-1.053-0.319-1.333c-0.442-0.272-1.029-0.184-1.332,0.327
			c-0.857,1.442-1.696,2.907-2.475,4.398C38.29,24.854,38.826,25.56,39.564,25.523z"/>
		<path fill-rule="evenodd" clip-rule="evenodd" fill="#FFFFFF" d="M24.308,24.815c0.1,0.167,0.195,0.347,0.326,0.488
			c0.338,0.355,0.762,0.367,1.187,0.19c0.362-0.155,0.475-0.493,0.49-0.704c-0.009-0.526-0.21-0.819-0.388-1.122
			c-0.588-1.012-1.178-2.025-1.774-3.031c-0.178-0.307-0.337-0.627-0.562-0.892c-0.272-0.328-0.653-0.428-1.063-0.262
			c-0.454,0.191-0.619,0.556-0.59,1.037c0.019,0.292,0.179,0.514,0.314,0.75C22.932,22.45,23.62,23.636,24.308,24.815z"/>
		<path fill-rule="evenodd" clip-rule="evenodd" fill="#FFFFFF" d="M20.054,43.173c-0.287,0.027-0.518,0.182-0.748,0.314
			c-1.183,0.684-2.359,1.371-3.536,2.067c-0.2,0.114-0.405,0.241-0.56,0.41c-0.299,0.324-0.288,0.715-0.123,1.094
			c0.158,0.362,0.498,0.463,0.613,0.463c0.584,0.008,0.854-0.152,1.124-0.307c1.179-0.69,2.358-1.375,3.537-2.067
			c0.165-0.1,0.341-0.195,0.482-0.328c0.37-0.333,0.41-0.752,0.198-1.169C20.843,43.265,20.489,43.134,20.054,43.173z"/>
		<path fill-rule="evenodd" clip-rule="evenodd" fill="#FFFFFF" d="M18.006,38.011c0.78-0.021,1.215-0.376,1.23-0.953
			c0.014-0.594-0.395-0.985-1.179-0.999c-1.521-0.026-3.043-0.018-4.572,0.018c-0.705,0.018-1.099,0.395-1.113,0.946
			c-0.022,0.586,0.424,0.984,1.18,1.006c0.74,0.021,1.484,0,2.225-0.002C16.518,38.022,17.267,38.033,18.006,38.011z"/>
		<path fill-rule="evenodd" clip-rule="evenodd" fill="#FFFFFF" d="M51.47,35.906c-1.523-0.025-3.051-0.018-4.575,0.02
			c-0.73,0.02-1.103,0.379-1.116,0.939c-0.015,0.605,0.402,0.996,1.164,1.017c0.738,0.021,1.484-0.005,2.226-0.005
			c0.744-0.003,1.484,0.007,2.23-0.014c0.787-0.02,1.22-0.367,1.237-0.943C52.656,36.323,52.244,35.915,51.47,35.906z"/>
	</g>
	<g>
		<path fill="none" d="M34.352,31.4c-0.162,1.152-0.086,2,0.928,2.818c1.538,1.232,1.565,3.651,0.337,5.211
			c-1.199,1.528-3.377,1.953-5.071,0.984c-2.436-1.39-2.715-4.734-0.493-6.532c0.496-0.4,0.711-0.768,0.639-1.365
			c-0.043-0.365,0.064-0.756-0.099-1.112c-2.719,0.803-4.471,3.656-4.023,6.431c0.496,3.033,3.021,5.147,6.088,5.091
			c2.967-0.055,5.424-2.285,5.811-5.278C38.821,34.905,37.001,32.097,34.352,31.4z"/>
		<path fill="#FFFFFF" d="M32.513,25.46c-6.011-0.002-11.629,4.861-11.609,11.675c0.019,6.397,5.223,11.521,11.643,11.491
			c5.881,0.084,11.551-4.637,11.544-11.583C44.088,29.997,38.24,25.468,32.513,25.46z M31.663,30.113
			c0.013-0.498,0.359-0.822,0.84-0.803c0.469,0.021,0.771,0.341,0.781,0.857c0.01,0.625,0.008,1.251,0.01,1.879l0,0
			c0.003,0.626,0.01,1.25,0.008,1.873c0,0.522-0.299,0.834-0.781,0.85c-0.477,0.013-0.836-0.266-0.843-0.785
			C31.653,32.695,31.642,31.405,31.663,30.113z M38.467,37.649c-0.387,2.993-2.844,5.224-5.811,5.278
			c-3.067,0.056-5.592-2.058-6.088-5.091c-0.447-2.774,1.305-5.627,4.023-6.431c0.163,0.356,0.056,0.747,0.099,1.112
			c0.072,0.597-0.143,0.965-0.639,1.365c-2.222,1.798-1.942,5.143,0.493,6.532c1.694,0.968,3.872,0.544,5.071-0.984
			c1.229-1.56,1.201-3.979-0.337-5.211c-1.014-0.818-1.09-1.666-0.928-2.818C37.001,32.097,38.821,34.905,38.467,37.649z"/>
	</g>
</g>
</svg>
