<?xml version="1.0" encoding="utf-8"?>
<!-- Generator: Adobe Illustrator 16.0.0, SVG Export Plug-In . SVG Version: 6.00 Build 0)  -->
<!DOCTYPE svg PUBLIC "-//W3C//DTD SVG 1.1//EN" "http://www.w3.org/Graphics/SVG/1.1/DTD/svg11.dtd">
<svg version="1.1" id="Layer_1" xmlns="http://www.w3.org/2000/svg" xmlns:xlink="http://www.w3.org/1999/xlink" x="0px" y="0px"
	 width="64.718px" height="70.015px" viewBox="0 0 64.718 70.015" enable-background="new 0 0 64.718 70.015" xml:space="preserve">
<rect fill="#A21E45" width="64.718" height="70.015"/>
<g>
	<path fill-rule="evenodd" clip-rule="evenodd" fill="#FFFFFF" d="M39.885,56.773c-0.669-0.078-0.707-0.558-0.715-1.093
		c-0.024-2.608-0.063-5.223-0.1-7.834c-0.054-4.032-0.091-8.07-0.172-12.104c-0.021-0.827,0.206-1.443,0.82-2.029
		c2.258-2.141,4.461-4.339,6.684-6.516c0.084-0.078,0.16-0.169,0.251-0.239c0.294-0.223,0.49-0.722,0.918-0.573
		c0.47,0.162,0.241,0.666,0.247,1.013c0.064,3.266,0.099,6.529,0.141,9.796c0.082,6.069,0.165,12.14,0.24,18.208
		c0.006,0.476,0.191,1.039-0.484,1.263C45.112,56.839,42.5,56.872,39.885,56.773z"/>
	<path fill-rule="evenodd" clip-rule="evenodd" fill="#FFFFFF" d="M32.209,41.572c1.053-1.083,2.129-2.178,3.205-3.274
		c0.219-0.221,0.418-0.459,0.651-0.652c0.376-0.304,0.649-0.211,0.729,0.248c0.042,0.265,0.021,0.542,0.024,0.809
		c0.074,5.539,0.15,11.079,0.227,16.614c0,0.231,0.005,0.468,0.003,0.695c-0.015,0.514-0.284,0.756-0.804,0.761
		c-2.496,0.033-4.996,0.066-7.496,0.102c-0.585,0.012-0.849-0.276-0.836-0.845c0.004-0.156-0.003-0.307-0.006-0.458
		c-0.074-5.501-0.15-11.004-0.211-16.501c0-0.383-0.248-0.93,0.285-1.118c0.432-0.149,0.663,0.313,0.935,0.56
		C29.987,39.503,31.055,40.5,32.209,41.572z"/>
	<path fill-rule="evenodd" clip-rule="evenodd" fill="#FFFFFF" d="M25.482,31.95c-1.228,1.288-2.443,2.572-3.67,3.842
		c-1.846,1.903-3.699,3.8-5.557,5.7c-0.639,0.656-0.664,0.666-1.254,0.081c-1.721-1.711-1.66-1.172-0.068-2.828
		c3.205-3.324,6.435-6.617,9.654-9.919c0.083-0.082,0.16-0.163,0.242-0.248c0.686-0.676,0.694-0.684,1.367-0.037
		c1.491,1.439,2.985,2.887,4.455,4.349c0.44,0.433,0.801,0.937,1.125,1.328c0.628-0.249,0.83-0.584,1.09-0.857
		c3.979-4.072,7.947-8.151,11.918-12.226c0.73-0.75,0.717-0.603,0.021-1.317c-0.286-0.301-0.683-0.504-0.79-0.95
		c0.091-0.371,0.423-0.295,0.658-0.351c1.713-0.425,3.424-0.838,5.145-1.242c0.755-0.175,0.843-0.105,0.707,0.601
		c-0.357,1.809-0.715,3.612-1.104,5.41c-0.14,0.661-0.279,0.682-0.8,0.252c-0.381-0.313-0.655-0.943-1.122-0.913
		c-0.502,0.042-0.801,0.658-1.174,1.035c-4.452,4.568-8.909,9.143-13.363,13.721c-1.028,1.055-0.871,0.898-1.758,0.051
		C29.345,35.653,27.484,33.871,25.482,31.95z"/>
	<path fill-rule="evenodd" clip-rule="evenodd" fill="#FFFFFF" d="M25.458,46.554c0.043,3.035,0.085,6.073,0.119,9.106
		c0.017,1.238,0,1.251-1.175,1.27c-2.266,0.041-4.533,0.069-6.802,0.091c-0.99,0.009-1.061-0.057-1.076-1.02
		c-0.057-3.498-0.087-6.992-0.155-10.487c-0.011-0.628,0.171-1.105,0.621-1.539c2.48-2.414,4.945-4.835,7.414-7.251
		c0.191-0.18,0.369-0.438,0.683-0.316c0.339,0.125,0.236,0.447,0.24,0.697C25.377,40.252,25.415,43.4,25.458,46.554z"/>
	<path fill-rule="evenodd" clip-rule="evenodd" fill="#A71A39" d="M39.885,56.773c2.612-0.107,5.22-0.14,7.83-0.107
		c-0.199,0.233-0.479,0.206-0.742,0.208c-2.11,0.031-4.222,0.059-6.336,0.088C40.371,56.963,40.096,56.999,39.885,56.773z"/>
</g>
</svg>
